#!OML:ASF H:\Punching\Project 1\Capture day 1\Session 1\female.ASF
:FULLY-SPECIFIED
:DEGREES
1097
root -2.66093 15.5869 28.5297 -160.81 351.348 -178.449
lowerback -4.10954 -0.945035 -0.0301298
upperback -6.38174 -1.71472 0.937366
thorax -4.25431 -1.03839 0.994248
lowerneck -16.6533 4.94411 10.2175
upperneck 33.4753 2.94021 -3.69701
head 14.6341 1.25576 -2.99556
rclavicle 4.53726e-014 -6.85807e-015
rhumerus -38.2732 3.3648 -80.0551
rradius 36.5186
rwrist -3.46344
rhand -14.4408 -6.34363
rfingers 7.12502
rthumb 11.704 -35.9967
lclavicle 4.53726e-014 -6.85807e-015
lhumerus -34.4714 -7.04953 79.5879
lradius 49.7753
lwrist -14.0125
lhand -2.8908 14.6226
lfingers 7.12502
lthumb 22.8188 43.2928
rfemur -34.7501 8.10216 21.9481
rtibia 39.3837
rfoot -20.8384 -7.98285
rtoes -1.13497
lfemur -16.4417 -3.94961 -25.3817
ltibia 21.2322
lfoot -26.2883 26.837
ltoes 9.51943
1098
root -2.66605 15.5841 28.529 -160.801 351.808 -178.478
lowerback -4.01091 -0.966456 -0.0918595
upperback -6.34081 -1.73745 0.901218
thorax -4.26589 -1.0452 0.993016
lowerneck -16.5673 5.05685 10.3459
upperneck 33.4637 3.09783 -3.79582
head 14.6304 1.32231 -3.0321
rclavicle 3.08365e-014 1.59028e-015
rhumerus -38.4995 2.94676 -79.7723
rradius 36.2065
rwrist -3.26961
rhand -14.4032 -6.20109
rfingers 7.12502
rthumb 11.7403 -35.8521
lclavicle 3.08365e-014 1.59028e-015
lhumerus -33.6439 -7.09642 79.2778
lradius 49.8461
lwrist -14.0203
lhand -3.22112 14.7483
lfingers 7.12502
lthumb 22.5017 43.4573
rfemur -35.3614 7.89156 21.96
rtibia 40.3884
rfoot -20.8265 -7.86932
rtoes -1.68718
lfemur -16.358 -3.75072 -25.5409
ltibia 21.1213
lfoot -26.2065 26.9674
ltoes 9.79718
1099
root -2.67146 15.5824 28.5265 -160.794 352.25 -178.482
lowerback -3.92803 -0.986597 -0.122969
upperback -6.29914 -1.75911 0.874847
thorax -4.26837 -1.05284 0.984363
lowerneck -16.4849 5.17377 10.4833
upperneck 33.467 3.25712 -3.89755
head 14.6356 1.38999 -3.07177
rclavicle 1.7903e-014 -4.77083e-015
rhumerus -38.7007 2.49084 -79.4585
rradius 35.8158
rwrist -3.02919
rhand -14.3497 -6.04873
rfingers 7.12502
rthumb 11.7919 -35.6968
lclavicle 1.7903e-014 -4.77083e-015
lhumerus -32.8365 -7.07322 78.9753
lradius 49.8892
lwrist -14.011
lhand -3.58324 14.877
lfingers 7.12502
lthumb 22.1541 43.6277
rfemur -36.0004 7.69228 21.9988
rtibia 41.4253
rfoot -20.7186 -7.72922
rtoes -2.23465
lfemur -16.2632 -3.53913 -25.6721
ltibia 20.9963
lfoot -26.1538 27.0856
ltoes 9.97
1100
root -2.67732 15.5813 28.5217 -160.796 352.683 -178.468
lowerback -3.84538 -1.00257 -0.12972
upperback -6.25687 -1.77526 0.856201
thorax -4.2706 -1.05863 0.9701
lowerneck -16.405 5.28968 10.617
upperneck 33.482 3.41121 -3.99123
head 14.6466 1.4557 -3.10888
rclavicle -2.05494e-014 -1.02374e-014
rhumerus -38.8948 2.0105 -79.1178
rradius 35.3759
rwrist -2.74093
rhand -14.2887 -5.92182
rfingers 7.12502
rthumb 11.8507 -35.5665
lclavicle -2.05494e-014 -1.02374e-014
lhumerus -32.0534 -6.98921 78.6895
lradius 49.9047
lwrist -13.9879
lhand -3.97036 15.0124
lfingers 7.12502
lthumb 21.7824 43.8067
rfemur -36.657 7.5001 22.0617
rtibia 42.4841
rfoot -20.4925 -7.56549
rtoes -2.91839
lfemur -16.1416 -3.33958 -25.7825
ltibia 20.8537
lfoot -26.2234 27.1835
ltoes 10.3772
1101
root -2.68362 15.5806 28.5146 -160.809 353.109 -178.446
lowerback -3.7663 -1.01653 -0.123878
upperback -6.20689 -1.78789 0.841918
thorax -4.26299 -1.06279 0.953025
lowerneck -16.3374 5.40674 10.7525
upperneck 33.5044 3.56314 -4.07953
head 14.6641 1.52165 -3.14463
rclavicle -1.55301e-015 -3.57812e-015
rhumerus -39.0757 1.5145 -78.7521
rradius 34.894
rwrist -2.39781
rhand -14.231 -5.78745
rfingers 7.12502
rthumb 11.9064 -35.4289
lclavicle -1.55301e-015 -3.57812e-015
lhumerus -31.2991 -6.84939 78.4234
lradius 49.9113
lwrist -13.9757
lhand -4.36486 15.1669
lfingers 7.12502
lthumb 21.4036 44.0047
rfemur -37.3279 7.31497 22.1372
rtibia 43.5547
rfoot -20.1551 -7.41502
rtoes -3.82401
lfemur -15.9856 -3.15483 -25.8852
ltibia 20.6851
lfoot -26.4246 27.2616
ltoes 11.0795
1102
root -2.6903 15.58 28.5051 -160.837 353.533 -178.424
lowerback -3.67982 -1.02895 -0.115775
upperback -6.1546 -1.79788 0.830915
thorax -4.25717 -1.06543 0.938242
lowerneck -16.2645 5.52343 10.8875
upperneck 33.5291 3.71194 -4.16026
head 14.6816 1.58705 -3.17784
rclavicle -9.0944e-015 -7.15625e-015
rhumerus -39.2547 1.01141 -78.3637
rradius 34.3758
rwrist -1.99671
rhand -14.1862 -5.65469
rfingers 7.12502
rthumb 11.9495 -35.2936
lclavicle -9.0944e-015 -7.15625e-015
lhumerus -30.5912 -6.66104 78.1813
lradius 49.9131
lwrist -13.9736
lhand -4.77123 15.3187
lfingers 7.12502
lthumb 21.0132 44.2003
rfemur -38.0038 7.13971 22.2171
rtibia 44.6225
rfoot -19.7534 -7.29397
rtoes -4.76088
lfemur -15.7862 -2.99611 -25.988
ltibia 20.4834
lfoot -26.7322 27.3372
ltoes 12.0382
1103
root -2.69735 15.5796 28.493 -160.879 353.952 -178.405
lowerback -3.58311 -1.04239 -0.109441
upperback -6.10051 -1.8086 0.823445
thorax -4.25509 -1.06804 0.928359
lowerneck -16.1867 5.63895 11.0196
upperneck 33.5532 3.85689 -4.23139
head 14.6975 1.65166 -3.20724
rclavicle -2.05742e-014 -9.93923e-016
rhumerus -39.4382 0.514035 -77.9551
rradius 33.8369
rwrist -1.54077
rhand -14.1429 -5.51994
rfingers 7.12502
rthumb 11.9913 -35.1564
lclavicle -2.05742e-014 -9.93923e-016
lhumerus -29.9334 -6.43368 77.9672
lradius 49.9186
lwrist -13.9827
lhand -5.17748 15.464
lfingers 7.12502
lthumb 20.6229 44.3884
rfemur -38.6761 6.96346 22.2997
rtibia 45.6678
rfoot -19.3122 -7.21229
rtoes -5.50003
lfemur -15.5376 -2.86433 -26.0937
ltibia 20.2397
lfoot -26.9943 27.4684
ltoes 12.8418
